<mxfile host="drawio-plugin" modified="2021-05-23T14:32:04.617Z" agent="5.0 (Windows NT 6.2; Win64; x64) AppleWebKit/537.36 (KHTML, like Gecko) Chrome/87.0.4280.141 Safari/537.36" etag="XpK2wtZKyymKEFkJUzzv" version="14.6.6" type="embed"><diagram id="uepm27GZW6QaMHYSkk2W" name="Page-1"><mxGraphModel dx="1321" dy="844" grid="1" gridSize="10" guides="1" tooltips="1" connect="1" arrows="1" fold="1" page="1" pageScale="1" pageWidth="850" pageHeight="1100" math="0" shadow="0"><root><mxCell id="0"/><mxCell id="1" parent="0"/><mxCell id="2" value="CRM" style="shape=umlFrame;whiteSpace=wrap;html=1;" vertex="1" parent="1"><mxGeometry x="200" y="40" width="485" height="840" as="geometry"/></mxCell><mxCell id="3" style="edgeStyle=none;rounded=0;orthogonalLoop=1;jettySize=auto;html=1;exitX=0.5;exitY=0.5;exitDx=0;exitDy=0;exitPerimeter=0;" edge="1" parent="1" source="4" target="19"><mxGeometry relative="1" as="geometry"/></mxCell><mxCell id="4" value="Lead" style="shape=umlActor;verticalLabelPosition=bottom;verticalAlign=top;html=1;" vertex="1" parent="1"><mxGeometry x="100" y="240" width="30" height="60" as="geometry"/></mxCell><mxCell id="5" style="edgeStyle=none;rounded=0;orthogonalLoop=1;jettySize=auto;html=1;exitX=0.5;exitY=0.5;exitDx=0;exitDy=0;exitPerimeter=0;" edge="1" parent="1" source="7" target="19"><mxGeometry relative="1" as="geometry"/></mxCell><mxCell id="6" style="edgeStyle=none;rounded=0;orthogonalLoop=1;jettySize=auto;html=1;exitX=0.5;exitY=0.5;exitDx=0;exitDy=0;exitPerimeter=0;" edge="1" parent="1" source="7" target="24"><mxGeometry relative="1" as="geometry"/></mxCell><mxCell id="7" value="Opportunity" style="shape=umlActor;verticalLabelPosition=bottom;verticalAlign=top;html=1;" vertex="1" parent="1"><mxGeometry x="100" y="460" width="30" height="60" as="geometry"/></mxCell><mxCell id="8" value="Contact" style="shape=umlActor;verticalLabelPosition=bottom;verticalAlign=top;html=1;" vertex="1" parent="1"><mxGeometry x="20" y="340" width="30" height="60" as="geometry"/></mxCell><mxCell id="9" value="Our Company" style="shape=umlActor;verticalLabelPosition=bottom;verticalAlign=top;html=1;" vertex="1" parent="1"><mxGeometry x="740" y="370" width="30" height="60" as="geometry"/></mxCell><mxCell id="10" value="Add new Lead" style="ellipse;whiteSpace=wrap;html=1;" vertex="1" parent="1"><mxGeometry x="325" y="90" width="120" height="50" as="geometry"/></mxCell><mxCell id="11" value="Convert to Opportunity" style="ellipse;whiteSpace=wrap;html=1;" vertex="1" parent="1"><mxGeometry x="325" y="160" width="120" height="50" as="geometry"/></mxCell><mxCell id="12" value="" style="endArrow=classic;html=1;entryX=0.5;entryY=0;entryDx=0;entryDy=0;" edge="1" parent="1" source="10" target="11"><mxGeometry width="50" height="50" relative="1" as="geometry"><mxPoint x="390" y="440" as="sourcePoint"/><mxPoint x="440" y="390" as="targetPoint"/></mxGeometry></mxCell><mxCell id="13" value="Show Leads" style="ellipse;whiteSpace=wrap;html=1;" vertex="1" parent="1"><mxGeometry x="325" y="220" width="120" height="50" as="geometry"/></mxCell><mxCell id="14" value="Lookup Lead id&lt;br&gt;" style="ellipse;whiteSpace=wrap;html=1;" vertex="1" parent="1"><mxGeometry x="325" y="280" width="120" height="40" as="geometry"/></mxCell><mxCell id="15" value="" style="endArrow=classic;html=1;" edge="1" parent="1"><mxGeometry width="50" height="50" relative="1" as="geometry"><mxPoint x="50" y="340" as="sourcePoint"/><mxPoint x="100" y="290" as="targetPoint"/></mxGeometry></mxCell><mxCell id="16" value="" style="endArrow=classic;html=1;" edge="1" parent="1"><mxGeometry width="50" height="50" relative="1" as="geometry"><mxPoint x="60" y="420" as="sourcePoint"/><mxPoint x="90" y="480" as="targetPoint"/></mxGeometry></mxCell><mxCell id="17" value="Add new Opportunity" style="ellipse;whiteSpace=wrap;html=1;" vertex="1" parent="1"><mxGeometry x="320" y="335" width="120" height="50" as="geometry"/></mxCell><mxCell id="18" value="Change Status&lt;br&gt;Open/Close" style="ellipse;whiteSpace=wrap;html=1;" vertex="1" parent="1"><mxGeometry x="320" y="400" width="120" height="50" as="geometry"/></mxCell><mxCell id="19" value="Show Products" style="ellipse;whiteSpace=wrap;html=1;" vertex="1" parent="1"><mxGeometry x="320" y="470" width="120" height="50" as="geometry"/></mxCell><mxCell id="20" value="Account / &lt;br&gt;Company" style="shape=umlActor;verticalLabelPosition=bottom;verticalAlign=top;html=1;" vertex="1" parent="1"><mxGeometry x="120" y="585" width="30" height="60" as="geometry"/></mxCell><mxCell id="21" value="" style="endArrow=classic;html=1;" edge="1" parent="1"><mxGeometry width="50" height="50" relative="1" as="geometry"><mxPoint x="115" y="550" as="sourcePoint"/><mxPoint x="130" y="580" as="targetPoint"/></mxGeometry></mxCell><mxCell id="22" value="Show Opportunity-List" style="ellipse;whiteSpace=wrap;html=1;" vertex="1" parent="1"><mxGeometry x="320" y="535" width="120" height="50" as="geometry"/></mxCell><mxCell id="23" value="Show Contact-List" style="ellipse;whiteSpace=wrap;html=1;" vertex="1" parent="1"><mxGeometry x="325" y="595" width="120" height="50" as="geometry"/></mxCell><mxCell id="24" value="Order" style="ellipse;whiteSpace=wrap;html=1;" vertex="1" parent="1"><mxGeometry x="320" y="660" width="120" height="50" as="geometry"/></mxCell></root></mxGraphModel></diagram></mxfile>